<svg id="Layer_1" data-name="Layer 1" xmlns="http://www.w3.org/2000/svg" xmlns:xlink="http://www.w3.org/1999/xlink" viewBox="0 0 928 336"><defs><linearGradient id="linear-gradient" x1="373.27" y1="449.6" x2="395.15" y2="449.6" gradientTransform="translate(-1093.08 -1211.9) scale(3.48 3.73)" gradientUnits="userSpaceOnUse"><stop offset="0.3" stop-color="#6288ef"/><stop offset="1" stop-color="#d525db"/></linearGradient><linearGradient id="linear-gradient-2" x1="387.99" y1="469.27" x2="429.9" y2="469.27" xlink:href="#linear-gradient"/><linearGradient id="linear-gradient-3" x1="372.43" y1="497.04" x2="391.85" y2="497.04" xlink:href="#linear-gradient"/><linearGradient id="linear-gradient-4" x1="343" y1="480.97" x2="374.87" y2="480.97" xlink:href="#linear-gradient"/><linearGradient id="linear-gradient-5" x1="348.18" y1="459.26" x2="376.64" y2="459.26" xlink:href="#linear-gradient"/><linearGradient id="linear-gradient-6" x1="389.27" y1="491.02" x2="408.79" y2="491.02" xlink:href="#linear-gradient"/></defs><title>Logo2</title><path d="M222.69,524c6.21,5.93-56.13-41.05,18.63-111.91,18-17,36.93-26.2,38.41-23.68,2.26,3.87-3.94,15.76-3.37,34,.29,9.29.12,30-1,47.81-.72,11.62-4.41,33.06-7.93,41.81-7,17.4-16.16,31.32-19.91,32.72-7.56,2.81-1.81-11.12-3-24.46s-6-27-3.58-34.46-10,.37-13.8,10.74,1.38,23.72.35,26.69S222.69,524,222.69,524Z" transform="translate(-99 -388)" style="fill:url(#linear-gradient)"/><path d="M269.5,531.76s14.75-34.23,59.29-30.81c19,1.45,42.58,15.77,61,11.39s9.17,3,6.43,11.5c-21,65-94.12,60.25-127.19,48s3.92-11.73,6.38-10.76,34.43-2.32,50.5-12.88,30.27-9.64,6.68-11.58-47-1-61.57,5.41S268.2,534.4,269.5,531.76Z" transform="translate(-99 -388)" style="fill:url(#linear-gradient-2)"/><path d="M226.71,566.76c4.64-3.13,24.21-10.53,12,15.2-6.36,13.39-2.9,32.46,1.24,52.48s3.85,16.71,8.28,6.67c5.76-13,8.09-22.31,18.13-.17,4.37,9.64,2.58,27.74-3.34,39.84-15.13,31-22.47,34.53-31.69,41.86-9,7.12-3.11-15.19-9.66-33.35-4.15-11.49-13-29-18.35-48.4-3.1-11.29-2.24-29.62-.2-37.49,2.94-11.36,6.43-18.68,10.35-23.72C216.1,576.26,222.8,569.4,226.71,566.76Z" transform="translate(-99 -388)" style="fill:url(#linear-gradient-3)"/><path d="M168.85,603.49c-21.43,9.8-81.69,3.39-67.79-3.07,17.6-8.17,31.17-27.73,43.77-34.49,13.37-7.18,33.22-6.48,43.61-7,4.89-.27,6.61,3.56,2.76,6.12-7.15,4.76-24.28,11.17-11.69,10.23,25.21-1.89,36.26-12.64,27,.4C202.53,581.19,181.71,597.61,168.85,603.49Z" transform="translate(-99 -388)" style="fill:url(#linear-gradient-4)"/><path d="M215.59,551c-12.4,3.84-61.92-9-73.32-25.95-16.44-24.45-11-59.25-23.57-67.4s48.45-5.56,63.63,20S206.48,522.15,203,527s-5.52,9.63-13.11-3.71-25.13-25.34-21-10C172.75,527.79,220.23,549.57,215.59,551Z" transform="translate(-99 -388)" style="fill:url(#linear-gradient-5)"/><path d="M260,588c8.5-2.64,42.47,6.17,50.28,17.79,11.28,16.78,7.52,40.65,16.17,46.23s-33.23,3.82-43.64-13.72-16.56-30.5-14.2-33.8,26.23,19.92,23.43,9.4C289.41,603.94,256.85,589,260,588Z" transform="translate(-99 -388)" style="fill:url(#linear-gradient-6)"/><text transform="translate(332 175.73)" style="font-size:90px;font-family:HighTowerText-Reg, High Tower Text">BioEmergency</text></svg>