<?xml version="1.0" standalone="no"?>
<!DOCTYPE svg PUBLIC "-//W3C//DTD SVG 20010904//EN"
 "http://www.w3.org/TR/2001/REC-SVG-20010904/DTD/svg10.dtd">
<svg version="1.0" xmlns="http://www.w3.org/2000/svg"
 width="1080.000000pt" height="731.000000pt" viewBox="0 0 1080.000000 731.000000"
 preserveAspectRatio="xMidYMid meet">

<g transform="translate(0.000000,731.000000) scale(0.100000,-0.100000)"
fill="#ffffff" stroke="none">
<path d="M1000 5184 c0 -31 0 -32 72 -42 79 -12 113 -31 143 -83 20 -33 20
-52 20 -1199 0 -1161 0 -1165 -22 -1263 -50 -227 -142 -335 -323 -380 -53 -14
-55 -15 -58 -51 l-3 -36 49 0 c27 0 98 5 158 11 472 45 788 272 869 623 35
150 38 239 44 1256 6 956 7 1017 24 1048 22 40 78 67 160 77 56 6 57 7 57 38
l0 32 -595 0 -595 0 0 -31z"/>
<path d="M2560 5183 c0 -31 1 -32 58 -38 87 -11 135 -35 158 -81 18 -37 19
-75 25 -804 4 -481 10 -791 17 -835 42 -260 87 -362 215 -482 140 -131 337
-196 634 -210 420 -19 718 110 841 367 48 100 76 196 98 340 13 85 18 236 24
790 5 507 10 695 20 725 32 103 75 149 172 181 44 14 48 18 48 47 l0 32 -335
0 -335 0 0 -32 c0 -27 4 -34 28 -39 163 -35 216 -62 259 -132 54 -91 58 -150
58 -837 0 -451 -3 -632 -13 -695 -32 -211 -102 -388 -188 -480 -94 -101 -260
-157 -433 -147 -236 13 -344 114 -387 363 -12 67 -14 234 -12 945 3 848 3 865
23 899 29 49 70 69 169 82 l86 11 0 31 0 31 -615 0 -615 0 0 -32z"/>
<path d="M5250 5184 c0 -31 1 -32 58 -39 94 -11 139 -36 165 -92 l22 -48 3
-960 c3 -988 0 -1074 -36 -1125 -26 -36 -79 -59 -150 -66 -62 -7 -62 -7 -62
-39 l0 -32 1005 1 1004 1 -7 75 c-4 41 -7 250 -7 463 l0 388 -39 -3 -40 -3
-17 -70 c-79 -321 -310 -644 -534 -746 -61 -28 -71 -29 -201 -29 l-136 0 -33
33 c-28 28 -34 42 -40 97 -3 36 -5 504 -3 1040 l3 975 23 47 c28 57 61 74 171
90 l81 11 0 31 0 31 -615 0 -615 0 0 -31z"/>
<path d="M7704 5180 c3 -19 9 -205 12 -413 l7 -378 36 3 36 3 12 70 c65 361
307 610 643 664 70 12 290 15 290 5 0 -4 -236 -521 -525 -1151 -289 -630 -525
-1157 -525 -1172 l0 -27 925 1 925 0 -5 65 c-3 36 -8 86 -11 111 -2 26 -4 196
-4 378 l-1 331 -39 0 c-37 0 -40 -2 -40 -29 0 -60 -50 -223 -96 -313 -41 -78
-65 -110 -154 -198 -122 -122 -215 -182 -361 -231 -83 -28 -110 -33 -232 -37
l-137 -5 41 89 c675 1465 1009 2205 1009 2235 l0 34 -906 0 -906 0 6 -35z"/>
<path d="M5617 2398 c-103 -28 -139 -147 -70 -229 14 -17 58 -52 97 -79 91
-62 125 -98 132 -142 5 -29 1 -41 -23 -68 -26 -29 -36 -33 -77 -33 -77 0 -130
57 -143 154 -11 79 -23 48 -23 -58 0 -98 1 -106 16 -91 15 14 21 14 73 -4 140
-50 301 19 301 128 0 74 -29 112 -140 187 -100 67 -129 94 -136 133 -8 42 10
72 50 89 69 29 144 -21 168 -111 7 -24 16 -44 20 -44 4 0 8 39 8 88 -1 79 -2
85 -15 68 -15 -19 -16 -19 -52 -2 -46 22 -135 29 -186 14z"/>
<path d="M6955 2397 c-133 -44 -195 -124 -203 -260 -5 -91 9 -152 50 -208 67
-92 231 -123 352 -66 32 15 60 27 62 27 2 0 10 -12 18 -27 14 -26 15 -22 16
74 0 92 2 104 22 123 l22 20 -130 -1 c-99 0 -123 -3 -104 -11 56 -23 55 -21
58 -110 3 -100 -5 -111 -74 -111 -57 0 -92 24 -124 89 -23 44 -25 61 -25 174
0 119 1 128 30 185 39 76 68 97 134 97 38 0 61 -6 90 -25 38 -25 71 -78 71
-114 0 -10 5 -25 10 -33 7 -10 10 8 10 60 0 41 3 85 6 98 4 13 2 22 -5 22 -6
0 -11 -7 -11 -15 0 -26 -26 -27 -71 -4 -53 27 -148 34 -204 16z"/>
<path d="M9367 2398 c-103 -28 -139 -147 -70 -229 14 -17 58 -52 97 -79 91
-62 125 -98 132 -142 5 -29 1 -41 -23 -68 -26 -29 -36 -33 -77 -33 -77 0 -130
57 -143 154 -11 79 -23 48 -23 -58 0 -98 1 -106 16 -91 15 14 21 14 73 -4 140
-50 301 19 301 128 0 74 -29 112 -140 187 -100 67 -129 94 -136 133 -8 42 10
72 50 89 69 29 144 -21 168 -111 7 -24 16 -44 20 -44 4 0 8 39 8 88 -1 79 -2
85 -15 68 -15 -19 -16 -19 -52 -2 -46 22 -135 29 -186 14z"/>
<path d="M4140 2387 c14 -6 28 -16 32 -22 4 -5 8 -116 8 -245 0 -129 -4 -240
-8 -245 -4 -6 -18 -16 -32 -22 -20 -10 -1 -12 105 -12 121 1 128 2 98 15 l-33
14 0 250 0 250 33 14 c30 13 23 14 -98 15 -106 0 -125 -2 -105 -12z"/>
<path d="M4690 2389 c13 -6 28 -15 32 -22 12 -19 10 -465 -2 -488 -6 -10 -17
-19 -25 -19 -7 0 -17 -4 -20 -10 -4 -6 24 -10 77 -9 l83 1 -38 15 c-22 10 -39
24 -43 37 -2 12 -3 99 -2 195 l3 174 174 -211 c113 -139 180 -212 192 -212 18
0 19 12 19 251 l0 251 31 29 31 29 -77 0 c-48 0 -74 -4 -70 -10 3 -5 14 -10
24 -10 38 0 45 -26 49 -191 3 -97 1 -159 -5 -159 -5 0 -78 83 -162 185 l-152
185 -72 -1 c-58 0 -67 -2 -47 -10z"/>
<path d="M6230 2387 c14 -6 28 -16 32 -22 4 -5 8 -116 8 -245 0 -129 -4 -240
-8 -245 -4 -6 -18 -16 -32 -22 -20 -10 -1 -12 105 -12 121 1 128 2 98 15 l-33
14 0 250 0 250 33 14 c30 13 23 14 -98 15 -106 0 -125 -2 -105 -12z"/>
<path d="M7600 2387 c14 -6 28 -16 32 -22 4 -5 8 -116 8 -245 0 -129 -4 -240
-8 -245 -4 -6 -18 -16 -32 -22 -20 -10 -1 -12 105 -12 121 1 128 2 98 15 l-33
14 0 120 0 120 110 0 110 0 -1 -92 c-2 -126 -8 -147 -44 -163 -27 -12 -16 -13
100 -14 l130 -1 -33 20 -32 20 2 242 c3 241 3 243 26 254 44 22 34 24 -94 23
-119 -1 -127 -2 -97 -15 28 -12 32 -19 38 -66 3 -29 5 -84 3 -123 l-3 -70
-107 -3 -108 -3 0 126 0 125 33 14 c30 13 23 14 -98 15 -106 0 -125 -2 -105
-12z"/>
<path d="M8457 2308 c3 -51 7 -94 8 -96 1 -1 12 24 24 56 11 33 32 71 46 85
24 23 80 41 98 30 11 -7 9 -481 -3 -504 -6 -10 -21 -19 -33 -19 -12 0 -29 -5
-37 -10 -10 -6 36 -10 140 -9 143 0 158 4 97 23 -9 3 -22 17 -27 31 -12 31
-14 482 -2 489 17 11 88 -14 109 -38 12 -14 30 -51 39 -81 10 -30 21 -55 26
-55 4 0 8 43 8 95 l0 95 -249 0 -250 0 6 -92z"/>
</g>
</svg>
